<svg width="21" height="25" viewBox="0 0 21 25" fill="none" xmlns="http://www.w3.org/2000/svg">
<path d="M17.376 23.76C16.0285 25.0663 14.5572 24.86 13.141 24.2412C11.6422 23.6087 10.2672 23.5812 8.68598 24.2412C6.70598 25.0937 5.66098 24.8463 4.47848 23.76C-2.23152 16.8438 -1.24152 6.31125 6.37598 5.92625C8.23223 6.0225 9.52473 6.94375 10.611 7.02625C12.2335 6.69625 13.7872 5.7475 15.5197 5.87125C17.596 6.03625 19.1635 6.86125 20.1947 8.34625C15.9047 10.9175 16.9222 16.5688 20.8547 18.15C20.071 20.2125 19.0535 22.2613 17.3622 23.7738L17.376 23.76ZM10.4735 5.84375C10.2672 2.7775 12.756 0.2475 15.616 0C16.0147 3.5475 12.3985 6.1875 10.4735 5.84375Z" fill="black"/>
</svg>
