<svg width="36" height="36" viewBox="0 0 36 36" fill="none" xmlns="http://www.w3.org/2000/svg">
<path d="M22.8602 18.9898C27.1473 18.9898 30.6227 15.5145 30.6227 11.2273C30.6227 6.94023 27.1473 3.46484 22.8602 3.46484C18.573 3.46484 15.0977 6.94023 15.0977 11.2273C15.0977 15.5145 18.573 18.9898 22.8602 18.9898Z" stroke="#8300C4" stroke-width="2" stroke-linecap="round" stroke-linejoin="round"/>
<path d="M32.6254 31.401V23.9625C32.5553 23.3003 32.2602 22.6821 31.7893 22.2112C31.3183 21.7403 30.7002 21.4451 30.0379 21.375H13.8664L8.69141 23.3153L13.2687 18.4253" stroke="#8300C4" stroke-width="2" stroke-linecap="round" stroke-linejoin="round"/>
<path d="M11.9257 31.4012V26.5494L6.73193 27.8447C2.92193 28.7949 2.60843 24.4112 4.52393 22.1402L11.4644 13.9089M14.5049 10.1792L10.6237 11.4729L13.7497 19.5459L17.1224 18.4217" stroke="#8300C4" stroke-width="2" stroke-linecap="round" stroke-linejoin="round"/>
</svg>
