<svg width="42" height="42" viewBox="0 0 42 42" fill="none" xmlns="http://www.w3.org/2000/svg">
<path d="M21 26.25C21 27.6424 21.5531 28.9777 22.5377 29.9623C23.5223 30.9469 24.8576 31.5 26.25 31.5C27.6424 31.5 28.9777 30.9469 29.9623 29.9623C30.9469 28.9777 31.5 27.6424 31.5 26.25C31.5 24.8576 30.9469 23.5223 29.9623 22.5377C28.9777 21.5531 27.6424 21 26.25 21C24.8576 21 23.5223 21.5531 22.5377 22.5377C21.5531 23.5223 21 24.8576 21 26.25Z" stroke="#8300C4" stroke-width="2" stroke-linecap="round" stroke-linejoin="round"/>
<path d="M22.75 30.625V38.5L26.25 35.875L29.75 38.5V30.625" stroke="#8300C4" stroke-width="2" stroke-linecap="round" stroke-linejoin="round"/>
<path d="M17.5 33.25H8.75C7.82174 33.25 6.9315 32.8813 6.27513 32.2249C5.61875 31.5685 5.25 30.6783 5.25 29.75V12.25C5.25 10.325 6.825 8.75 8.75 8.75H33.25C34.1783 8.75 35.0685 9.11875 35.7249 9.77513C36.3813 10.4315 36.75 11.3217 36.75 12.25V29.75C36.7494 30.3638 36.5874 30.9666 36.2802 31.498C35.973 32.0293 35.5315 32.4706 35 32.7775M10.5 15.75H31.5M10.5 21H15.75M10.5 26.25H14" stroke="#8300C4" stroke-width="2" stroke-linecap="round" stroke-linejoin="round"/>
</svg>
