<svg width="22" height="34" viewBox="0 0 22 34" fill="none" xmlns="http://www.w3.org/2000/svg">
<path d="M13.3333 33.3414H6.66667C6.22464 33.3414 5.80072 33.1658 5.48816 32.8532C5.1756 32.5407 5 32.1167 5 31.6747V21.3414H1.66667C1.22464 21.3414 0.800716 21.1658 0.488156 20.8532C0.175595 20.5407 0 20.1168 0 19.6747V13.6747C0 13.2327 0.175595 12.8088 0.488156 12.4962C0.800716 12.1837 1.22464 12.0081 1.66667 12.0081H5V9.17473C5.11683 6.63532 6.23437 4.24547 8.10829 2.52771C9.98221 0.809952 12.46 -0.095955 15 0.00806221H20C20.442 0.00806221 20.866 0.183657 21.1785 0.496217C21.4911 0.808778 21.6667 1.2327 21.6667 1.67473V7.67473C21.6667 8.11676 21.4911 8.54068 21.1785 8.85324C20.866 9.1658 20.442 9.34139 20 9.34139H15V12.0081H20C20.2573 12.0061 20.5116 12.0638 20.743 12.1766C20.9743 12.2893 21.1764 12.4541 21.3333 12.6581C21.4886 12.8651 21.5935 13.1053 21.6398 13.3599C21.6861 13.6145 21.6724 13.8763 21.6 14.1247L19.9333 20.1247C19.8325 20.4852 19.6133 20.8013 19.3109 21.022C19.0086 21.2427 18.6407 21.3552 18.2667 21.3414H15V31.6747C15 32.1167 14.8244 32.5407 14.5118 32.8532C14.1993 33.1658 13.7754 33.3414 13.3333 33.3414ZM8.33333 30.0081H11.6667V19.6747C11.6667 19.2327 11.8423 18.8088 12.1548 18.4962C12.4674 18.1837 12.8913 18.0081 13.3333 18.0081H17.0667L17.8 15.3414H13.3333C12.8913 15.3414 12.4674 15.1658 12.1548 14.8532C11.8423 14.5407 11.6667 14.1168 11.6667 13.6747V9.17473C11.7095 8.31988 12.0795 7.51424 12.7 6.92473C13.3205 6.33521 14.1441 6.00699 15 6.00806H18.3333V3.34139H15C13.3447 3.24054 11.7164 3.79645 10.4683 4.8885C9.22024 5.98056 8.45311 7.52067 8.33333 9.17473V13.6747C8.33333 14.1168 8.15774 14.5407 7.84518 14.8532C7.53262 15.1658 7.1087 15.3414 6.66667 15.3414H3.33333V18.0081H6.66667C7.1087 18.0081 7.53262 18.1837 7.84518 18.4962C8.15774 18.8088 8.33333 19.2327 8.33333 19.6747V30.0081Z" fill="black"/>
</svg>
