<svg width="29" height="29" viewBox="0 0 29 29" fill="none" xmlns="http://www.w3.org/2000/svg">
<g clip-path="url(#clip0_123_330)">
<path d="M10.1028 0.953755C7.20529 1.95894 4.70645 3.86682 2.97336 6.39715C1.24026 8.92748 0.364262 11.9469 0.474034 15.0119C0.583806 18.0769 1.67356 21.0259 3.58323 23.4257C5.4929 25.8256 8.12182 27.5498 11.0839 28.3452C13.4852 28.9648 16.0012 28.992 18.4154 28.4245C20.6025 27.9332 22.6245 26.8824 24.2834 25.3749C26.01 23.7581 27.2632 21.7012 27.9084 19.4254C28.6096 16.9506 28.7344 14.348 28.2732 11.8174H14.7882V17.4113H22.5978C22.4417 18.3034 22.1072 19.1549 21.6144 19.9148C21.1215 20.6747 20.4804 21.3274 19.7295 21.8338C18.7758 22.4646 17.7008 22.889 16.5735 23.0798C15.4428 23.2901 14.283 23.2901 13.1524 23.0798C12.0064 22.8429 10.9223 22.3699 9.96917 21.691C8.43795 20.6071 7.2882 19.0673 6.68402 17.2912C6.06961 15.4818 6.06961 13.5203 6.68402 11.7109C7.11409 10.4427 7.82506 9.28794 8.76386 8.3329C9.8382 7.2199 11.1983 6.42433 12.6951 6.03346C14.1918 5.64259 15.7673 5.67154 17.2486 6.11711C18.4058 6.47234 19.4641 7.093 20.3389 7.92961C21.2195 7.05357 22.0986 6.17527 22.9761 5.29469C23.4293 4.82118 23.9232 4.37032 24.3695 3.88547C23.034 2.64272 21.4665 1.67571 19.7567 1.03985C16.643 -0.090721 13.2362 -0.121104 10.1028 0.953755Z" fill="white"/>
<path d="M10.1021 0.95388C13.2352 -0.12171 16.642 -0.0921268 19.7559 1.03771C21.4661 1.67789 23.0329 2.64956 24.3665 3.89693C23.9134 4.38177 23.4353 4.83489 22.9731 5.30614C22.0941 6.1837 21.2158 7.05823 20.3382 7.92974C19.4633 7.09313 18.4051 6.47247 17.2479 6.11724C15.767 5.6701 14.1916 5.63948 12.6945 6.02875C11.1974 6.41802 9.83638 7.21213 8.76086 8.32396C7.82206 9.279 7.11109 10.4337 6.68102 11.702L1.98438 8.06567C3.66549 4.73195 6.57623 2.1819 10.1021 0.95388Z" fill="#E33629"/>
<path d="M0.738939 11.668C0.991378 10.4169 1.41048 9.20534 1.98503 8.06567L6.68167 11.7111C6.06727 13.5204 6.06727 15.482 6.68167 17.2913C5.11688 18.4996 3.55133 19.714 1.98503 20.9344C0.546702 18.0714 0.108036 14.8093 0.738939 11.668Z" fill="#F8BD00"/>
<path d="M14.7881 11.8152H28.2731C28.7344 14.3457 28.6096 16.9483 27.9084 19.4232C27.2632 21.6989 26.0099 23.7558 24.2834 25.3727C22.7676 24.19 21.2451 23.0164 19.7294 21.8338C20.4809 21.3269 21.1223 20.6735 21.6151 19.9128C22.108 19.1521 22.4422 18.2997 22.5977 17.4067H14.7881C14.7859 15.5444 14.7881 13.6798 14.7881 11.8152Z" fill="#587DBD"/>
<path d="M1.98242 20.9344C3.54872 19.7261 5.11427 18.5117 6.67906 17.2913C7.28445 19.068 8.43584 20.6079 9.96875 21.6911C10.9249 22.3669 12.0113 22.836 13.1587 23.0686C14.2894 23.2788 15.4492 23.2788 16.5798 23.0686C17.7072 22.8778 18.7822 22.4533 19.7359 21.8225C21.2516 23.0052 22.7741 24.1788 24.2898 25.3614C22.6311 26.8697 20.6091 27.9213 18.4218 28.4132C16.0076 28.9808 13.4916 28.9536 11.0902 28.3339C9.19096 27.8268 7.41692 26.9328 5.8793 25.7081C4.25181 24.4159 2.92255 22.7876 1.98242 20.9344Z" fill="#319F43"/>
</g>
<defs>
<clipPath id="clip0_123_330">
<rect width="29" height="29" fill="white"/>
</clipPath>
</defs>
</svg>
