<svg width="33" height="33" viewBox="0 0 33 33" fill="none" xmlns="http://www.w3.org/2000/svg">
<path d="M1.5 14.8333C1.5 8.54833 1.5 5.405 3.45333 3.45333C5.40667 1.50167 8.54833 1.5 14.8333 1.5H18.1667C24.4517 1.5 27.595 1.5 29.5467 3.45333C31.4983 5.40667 31.5 8.54833 31.5 14.8333V18.1667C31.5 24.4517 31.5 27.595 29.5467 29.5467C27.5933 31.4983 24.4517 31.5 18.1667 31.5H14.8333C8.54833 31.5 5.405 31.5 3.45333 29.5467C1.50167 27.5933 1.5 24.4517 1.5 18.1667V14.8333Z" stroke="black" stroke-width="3"/>
<path d="M24 11.5C25.3807 11.5 26.5 10.3807 26.5 9C26.5 7.61929 25.3807 6.5 24 6.5C22.6193 6.5 21.5 7.61929 21.5 9C21.5 10.3807 22.6193 11.5 24 11.5Z" fill="black"/>
<path d="M16.5 21.5C19.2614 21.5 21.5 19.2614 21.5 16.5C21.5 13.7386 19.2614 11.5 16.5 11.5C13.7386 11.5 11.5 13.7386 11.5 16.5C11.5 19.2614 13.7386 21.5 16.5 21.5Z" stroke="black" stroke-width="3"/>
</svg>
