<svg width="36" height="36" viewBox="0 0 36 36" fill="none" xmlns="http://www.w3.org/2000/svg">
<path d="M11.2501 5.25C8.91614 5.3205 7.52564 5.58 6.56264 6.543C5.24414 7.863 5.24414 9.9855 5.24414 14.232V23.991C5.24414 28.239 5.24414 30.3615 6.56264 31.6815C7.87964 33 10.0021 33 14.2441 33H21.7441C25.9876 33 28.1086 33 29.4256 31.68C30.7456 30.3615 30.7456 28.239 30.7456 23.991V14.232C30.7456 9.987 30.7456 7.863 29.4256 6.543C28.4641 5.58 27.0721 5.3205 24.7381 5.25" stroke="#8300C4" stroke-width="2.5"/>
<path d="M11.2441 5.625C11.2441 4.176 12.4201 3 13.8691 3H22.1191C22.8153 3 23.483 3.27656 23.9753 3.76884C24.4676 4.26113 24.7441 4.92881 24.7441 5.625C24.7441 6.32119 24.4676 6.98887 23.9753 7.48116C23.483 7.97344 22.8153 8.25 22.1191 8.25H13.8691C13.1729 8.25 12.5053 7.97344 12.013 7.48116C11.5207 6.98887 11.2441 6.32119 11.2441 5.625Z" stroke="#8300C4" stroke-width="2.5" stroke-linejoin="round"/>
<path d="M9.75 15H15.75" stroke="#8300C4" stroke-width="2.5" stroke-linecap="round"/>
<path d="M20.25 16.5C20.25 16.5 21 16.5 21.75 18C21.75 18 24.132 14.25 26.25 13.5" stroke="#8300C4" stroke-width="2.5" stroke-linecap="round" stroke-linejoin="round"/>
<path d="M9.75 24H15.75" stroke="#8300C4" stroke-width="2.5" stroke-linecap="round"/>
<path d="M20.25 25.5C20.25 25.5 21 25.5 21.75 27C21.75 27 24.132 23.25 26.25 22.5" stroke="#8300C4" stroke-width="2.5" stroke-linecap="round" stroke-linejoin="round"/>
</svg>
