<svg width="38" height="38" viewBox="0 0 38 38" fill="none" xmlns="http://www.w3.org/2000/svg">
<path d="M31.6663 15.8332C31.6663 21.2228 28.3002 25.8256 23.5565 27.6559H14.4428C9.69917 25.8256 6.33301 21.2228 6.33301 15.8332C6.33301 8.83721 12.0037 3.1665 18.9997 3.1665C25.9956 3.1665 31.6663 8.83721 31.6663 15.8332Z" stroke="#8300C4" stroke-width="2" stroke-linecap="round" stroke-linejoin="round"/>
<path d="M23.5568 27.6558L23.0185 34.1078C23.0018 34.3055 22.9116 34.4898 22.7655 34.624C22.6195 34.7583 22.4284 34.8329 22.23 34.833H15.77C15.5715 34.8329 15.3803 34.7582 15.2342 34.6238C15.0882 34.4893 14.998 34.3049 14.9815 34.1071L14.4432 27.655M14.25 13.458V18.208L19 15.833L23.75 18.208V13.458" stroke="#8300C4" stroke-width="2" stroke-linecap="round" stroke-linejoin="round"/>
</svg>
