<svg width="39" height="39" viewBox="0 0 39 39" fill="none" xmlns="http://www.w3.org/2000/svg">
<path d="M31.1272 32.1962L21.1236 22.1926C20.3248 22.8731 19.4062 23.3998 18.3679 23.7725C17.3295 24.1453 16.2858 24.3317 15.2367 24.3317C12.6786 24.3317 10.5134 23.4461 8.74126 21.675C6.96909 19.9039 6.08301 17.7393 6.08301 15.1811C6.08301 12.623 6.96803 10.4573 8.73807 8.68405C10.5081 6.91081 12.6722 6.02313 15.2303 6.021C17.7885 6.01887 19.9547 6.90496 21.729 8.67926C23.5033 10.4536 24.3905 12.6192 24.3905 15.1763C24.3905 16.2861 24.194 17.3601 23.801 18.3985C23.408 19.4369 22.8915 20.3251 22.2514 21.0631L32.255 31.0652L31.1272 32.1962ZM15.2383 22.7325C17.3577 22.7325 19.1469 22.003 20.606 20.544C22.065 19.0849 22.7946 17.2952 22.7946 15.1747C22.7946 13.0543 22.065 11.2651 20.606 9.8071C19.1469 8.3491 17.3577 7.61957 15.2383 7.61851C13.119 7.61744 11.3292 8.34697 9.8691 9.8071C8.40898 11.2672 7.67945 13.0564 7.68052 15.1747C7.68158 17.293 8.41111 19.0822 9.8691 20.5424C11.3271 22.0025 13.1163 22.732 15.2367 22.7309" fill="#787878"/>
</svg>
