<svg width="48" height="48" viewBox="0 0 48 48" fill="none" xmlns="http://www.w3.org/2000/svg">
<path fill-rule="evenodd" clip-rule="evenodd" d="M40 6C41.0091 5.99968 41.9811 6.38081 42.7211 7.06699C43.461 7.75318 43.9143 8.69369 43.99 9.7L44 10V38C44.0003 39.0092 43.6192 39.9811 42.933 40.7211C42.2468 41.4611 41.3063 41.9143 40.3 41.99L40 42H8C6.99084 42.0003 6.01887 41.6192 5.2789 40.933C4.53894 40.2468 4.08569 39.3063 4.01 38.3L4 38V10C3.99968 8.99085 4.38081 8.01887 5.06699 7.2789C5.75317 6.53894 6.69369 6.08569 7.7 6.01L8 6H40ZM40 10H8V38H40V10ZM20.68 15.276L21.716 15.736L22.392 16.056L23.166 16.436L24.026 16.872L24.966 17.372L25.98 17.932L26.512 18.236L27.548 18.846L28.496 19.43L29.356 19.976L30.116 20.482L31.076 21.142L31.804 21.668L31.994 21.808C32.3026 22.0377 32.5533 22.3363 32.726 22.6801C32.8987 23.0239 32.9887 23.4033 32.9887 23.788C32.9887 24.1727 32.8987 24.5521 32.726 24.8959C32.5533 25.2397 32.3026 25.5383 31.994 25.768L31.348 26.238L30.468 26.854L29.756 27.332L28.946 27.858L28.04 28.424L27.042 29.024L25.974 29.642L24.956 30.206L24.014 30.706L23.154 31.146L22.382 31.522L21.138 32.098L20.678 32.298C20.3248 32.4502 19.941 32.5177 19.5571 32.4953C19.1732 32.4728 18.7999 32.3609 18.4669 32.1686C18.1339 31.9763 17.8505 31.7088 17.6392 31.3875C17.4279 31.0662 17.2946 30.6999 17.25 30.318L17.134 29.188L17.07 28.44L16.986 27.112L16.94 26.096L16.91 24.986L16.902 24.398L16.898 23.788C16.898 23.3747 16.902 22.9747 16.91 22.588L16.94 21.478L16.986 20.464L17.04 19.55L17.1 18.748L17.25 17.26C17.2944 16.8776 17.4275 16.5109 17.6388 16.1892C17.85 15.8674 18.1336 15.5994 18.4668 15.4067C18.8 15.214 19.1736 15.1018 19.5579 15.0791C19.9422 15.0564 20.3264 15.1238 20.68 15.276ZM21.902 20.278L21.03 19.842L20.972 20.816L20.928 21.918L20.902 23.138L20.898 23.788L20.902 24.438L20.928 25.656L20.948 26.222L21 27.262L21.03 27.732L21.898 27.296L22.872 26.784L23.942 26.196L24.51 25.872L25.612 25.22L26.6 24.608L27.472 24.048L27.864 23.788L27.05 23.248L26.118 22.66C25.5877 22.3317 25.0523 22.0116 24.512 21.7L23.946 21.378L22.878 20.79L21.902 20.278Z" fill="#8300C4"/>
</svg>
